<svg id="圖層_1" data-name="圖層 1" xmlns="http://www.w3.org/2000/svg" viewBox="0 0 768.03 854.86"><defs><style>.cls-1{fill:#fff;}</style></defs><title>invoice-38_white</title><path class="cls-1" d="M170.67,868.69,269,774a21.34,21.34,0,0,1,30.17.58c.19.19.37.39.55.6l98.18,110.12,98.18-110.12a21.33,21.33,0,0,1,30.12-1.71,21.1,21.1,0,0,1,1.7,1.71l98.18,110.12,98.18-110.12a21.33,21.33,0,0,1,30.12-1.73l.6.55,98.34,94.72V128H170.67ZM128,918.08V106.71a21.45,21.45,0,0,1,21.33-21.38H874.67A21.37,21.37,0,0,1,896,106.52V918.06a21.34,21.34,0,0,1-36.12,16.15L741.38,820.07,642,931.52a21.33,21.33,0,0,1-30.12,1.73,20.17,20.17,0,0,1-1.73-1.73L512,821.4,413.82,931.52a21.33,21.33,0,0,1-30.12,1.73,21.72,21.72,0,0,1-1.73-1.73L282.62,820.07,164.14,934.21A21.33,21.33,0,0,1,128,918.08ZM298.67,320a21.26,21.26,0,0,1,21.18-21.33H661.48a21.33,21.33,0,0,1,0,42.66H319.85a21.19,21.19,0,0,1-21.18-21.22Zm0,128a21.39,21.39,0,0,1,21.48-21.33h255.7a21.33,21.33,0,1,1,0,42.66H320.15a21.35,21.35,0,0,1-21.48-21.22Zm0,128a21.39,21.39,0,0,1,21.48-21.33h255.7a21.33,21.33,0,1,1,0,42.66H320.15a21.35,21.35,0,0,1-21.48-21.22Z" transform="translate(-127.99 -85.33)"/></svg>
